<?xml version="1.0" encoding="utf-8"?>
<!-- Generator: Adobe Illustrator 25.0.0, SVG Export Plug-In . SVG Version: 6.00 Build 0)  -->
<svg version="1.1" id="Layer_1" xmlns="http://www.w3.org/2000/svg" xmlns:xlink="http://www.w3.org/1999/xlink" x="0px" y="0px"
	 viewBox="0 0 52.6 43" style="enable-background:new 0 0 52.6 43;" xml:space="preserve">
<style type="text/css">
	.st0{fill:#3D5161;}
</style>
<g>
	<g>
		<path class="st0" d="M48.9,15.4c-0.5-1.7-1.3-3.4-2.2-4.9l-3.5,2.1c0.8,1.2,1.4,2.6,1.8,4L48.9,15.4z"/>
		<path class="st0" d="M46.6,32.8l-3.5-2.2c-0.8,1.2-1.7,2.4-2.8,3.4l2.8,3C44.4,35.7,45.6,34.3,46.6,32.8z"/>
		<path class="st0" d="M49.4,25.5l-4-0.8c-0.3,1.4-0.7,2.8-1.4,4.1l3.7,1.8C48.5,29,49.1,27.3,49.4,25.5z"/>
		<path class="st0" d="M35,37.3l1.5,3.8c1.7-0.7,3.3-1.6,4.7-2.6l-2.4-3.3C37.7,36.1,36.4,36.8,35,37.3z"/>
		<path class="st0" d="M49.8,21.5c0-1.3-0.1-2.5-0.3-3.7l-4,0.7c0.2,1,0.3,2,0.3,3c0,0.4,0,0.9-0.1,1.3l4.1,0.3
			C49.8,22.6,49.8,22,49.8,21.5z"/>
		<path class="st0" d="M33.2,37.9c-1.4,0.4-2.9,0.6-4.3,0.6v4.1c1.8,0,3.6-0.3,5.4-0.7L33.2,37.9z"/>
		<path class="st0" d="M9.1,26.8c0.3,0.3,0.7,0.3,1,0l6.2-7.5c0.3-0.3,0.2-0.6-0.3-0.6h-4.1c0-0.2,0.1-0.4,0.1-0.6l0,0
			c0.1-0.2,0.1-0.5,0.2-0.7c0.8-3.3,2.6-6.2,5.1-8.4l0,0c0.1-0.1,0.3-0.3,0.5-0.4c0.5-0.4,0.9-0.7,1.4-1.1l0,0
			c2.5-1.7,5.4-2.7,8.6-2.9h0.1c0.2,0,0.4,0,0.7,0c0.1,0,0.1,0,0.2,0c0.2,0,0.5,0,0.7,0c0.1,0,0.2,0,0.2,0c0.2,0,0.4,0,0.5,0
			s0.1,0,0.2,0c0.2,0,0.5,0.1,0.7,0.1c0.1,0,0.1,0,0.2,0C32,4.8,32.8,5,33.5,5.2c0.1,0,0.2,0.1,0.3,0.1s0.2,0.1,0.3,0.1
			c0.2,0.1,0.4,0.1,0.5,0.2c0.1,0,0.2,0.1,0.3,0.1c0.1,0.1,0.3,0.1,0.4,0.2c0.1,0,0.1,0.1,0.2,0.1c0.3,0.1,0.5,0.2,0.8,0.4h0.1
			c0.1,0.1,0.3,0.1,0.4,0.2c0.1,0,0.1,0.1,0.2,0.1c0.1,0.1,0.2,0.1,0.3,0.2l0,0C38,7.2,38.6,7.6,39.1,8c0.2,0.2,0.4,0.3,0.6,0.5
			c0.1,0,0.1,0.1,0.2,0.1c0.2,0.2,0.4,0.4,0.6,0.6c0.6,0.5,1.1,1.1,1.6,1.8l3.2-2.5c-0.6-0.7-1.2-1.4-1.9-2.1l0,0c0,0-0.1,0-0.1-0.1
			C43.2,6.1,43,6,42.8,5.8c-0.1-0.1-0.1-0.1-0.2-0.2c-0.2-0.2-0.4-0.4-0.7-0.6c-0.1-0.1-0.2-0.1-0.2-0.2c-0.1-0.1-0.2-0.1-0.2-0.2
			l0,0c-0.6-0.5-1.3-0.9-2-1.4l0,0C39.3,3.1,39.2,3,39,2.9c0,0.1-0.1,0.1-0.1,0c-0.5-0.3-1.1-0.6-1.7-0.8c0,0-0.1,0-0.1-0.1
			c-0.6-0.2-1.1-0.5-1.7-0.6c-0.1,0-0.2-0.1-0.3-0.1c-0.2-0.1-0.3-0.1-0.5-0.2l0,0l0,0C33.8,1,33,0.8,32.2,0.6l0,0
			c-0.1,0-0.2,0-0.2,0c-0.1,0-0.2,0-0.3,0c-0.3,0-0.5-0.1-0.8-0.1c-0.1,0-0.2,0-0.3,0c-0.2,0-0.4,0-0.7,0c-0.1,0-0.2,0-0.3,0
			c-0.3,0-0.6,0-0.9,0h-0.1h-0.1c-0.3,0-0.6,0-0.8,0h-0.1c-0.2,0-0.5,0-0.7,0.1l0,0c-0.8,0.1-1.6,0.2-2.4,0.3l0,0
			c-0.3,0.1-0.7,0.1-1,0.2c0,0,0,0-0.1,0C22,1.5,20.6,2,19.3,2.6l0,0c-0.7,0.4-1.4,0.8-2.1,1.2l0,0c-1.5,1-2.9,2.2-4.1,3.5l0,0
			c-0.5,0.6-1,1.2-1.5,1.9l0,0c-1.1,1.5-1.9,3.1-2.6,4.7l0,0c-0.3,0.7-0.5,1.5-0.7,2.3l0,0c-0.1,0.3-0.2,0.7-0.2,1.1v0.1
			C8,17.7,8,18,7.9,18.4v0.1c0,0.1,0,0.2,0,0.3H3.2c-0.5,0-0.6,0.3-0.3,0.6L9.1,26.8z"/>
	</g>
</g>
</svg>
