<?xml version="1.0" encoding="utf-8"?>
<!-- Generator: Adobe Illustrator 25.0.0, SVG Export Plug-In . SVG Version: 6.00 Build 0)  -->
<svg version="1.1" id="Layer_1" xmlns="http://www.w3.org/2000/svg" xmlns:xlink="http://www.w3.org/1999/xlink" x="0px" y="0px"
	 viewBox="0 0 52.6 43" style="enable-background:new 0 0 52.6 43;" xml:space="preserve">
<style type="text/css">
	.st0{fill:#3D5161;}
</style>
<g transform="translate(0 -4.017)">
	<g transform="translate(0 4.017)">
		<path class="st0" d="M48.2,41.2V22.8c0-0.5-0.4-0.9-0.9-0.9h-8.8c-0.5,0-0.9,0.4-0.9,0.9v18.4H36V7.9h11.4c0.5,0,0.9-0.4,0.9-0.9
			V0.9c0-0.5-0.4-0.9-0.9-0.9H0.9C0.4,0,0,0.4,0,0.9V7c0,0.5,0.4,0.9,0.9,0.9h4.4v33.3H0.9V43h51.7v-1.8H48.2z M39.5,23.7h7v6.1h-7
			V23.7z M1.8,6.1V1.8h44.7v4.4H1.8z M7,7.9h27.2v33.3h-4.4V40c2.2-1,3.2-3.5,2.3-5.7c-0.2-0.5-0.6-1-1-1.4l1.7-0.8L32,30.4L30.7,31
			v-1.2c0-1.9-1.6-3.5-3.5-3.5H14c-1.9,0-3.5,1.6-3.5,3.5V31l-1.3-0.6L8.5,32l1.7,0.8C8.4,34.5,8.3,37.2,10,39
			c0.4,0.4,0.9,0.8,1.4,1v1.2H7L7,7.9z M12.3,31.6v-1.8c0-1,0.8-1.8,1.8-1.8h13.1c1,0,1.8,0.8,1.8,1.8v1.8L12.3,31.6L12.3,31.6z
			 M13.2,33.3h14.9c1.5,0,2.6,1.2,2.6,2.6c0,1.5-1.2,2.6-2.6,2.6H13.2c-1.5,0-2.6-1.2-2.6-2.6C10.5,34.5,11.7,33.3,13.2,33.3z
			 M13.2,40.3h14.9v0.9H13.2L13.2,40.3L13.2,40.3z M39.5,41.2v-9.6h7v9.6H39.5z"/>
		<rect x="17.7" y="31.2" class="st0" width="2.4" height="3.5"/>
		<rect x="35.5" y="31.2" class="st0" width="2.4" height="3.5"/>
	</g>
</g>
</svg>
